# xmcd
#
# Track frame offsets:
#       150
#       18528
#       34961
#       53357
#       69342
#       81852
#       96076
#       111885
#       126356
#       137806
#       155833
#       171475
#
# Disc length: 2940 seconds
#
# Revision: 0
# Processed by: cddbd v1.5.1PL2 Copyright (c) Steve Scherf et al.
# Submitted via: WaveLab 4.01
#
DISCID=a50b7a0c
DTITLE=Françoise Hardy - Tant de belles choses
DYEAR=2004
DGENRE=
TTITLE0=Piste 01
TTITLE1=Piste 02
TTITLE2=Piste 03
TTITLE3=Piste 04
TTITLE4=Piste 05
TTITLE5=Piste 06
TTITLE6=Piste 07
TTITLE7=Piste 08
TTITLE8=Piste 09
TTITLE9=Piste 10
TTITLE10=Piste 11
TTITLE11=Piste 12
EXTD=
EXTT0=
EXTT1=
EXTT2=
EXTT3=
EXTT4=
EXTT5=
EXTT6=
EXTT7=
EXTT8=
EXTT9=
EXTT10=
EXTT11=
PLAYORDER=
